<?xml version="1.0" standalone="no"?>
<!DOCTYPE svg PUBLIC "-//W3C//DTD SVG 20010904//EN"
 "http://www.w3.org/TR/2001/REC-SVG-20010904/DTD/svg10.dtd">
<svg version="1.0" xmlns="http://www.w3.org/2000/svg"
 width="512.000000pt" height="512.000000pt" viewBox="0 0 512.000000 512.000000"
 preserveAspectRatio="xMidYMid meet">

<g transform="translate(0.000000,512.000000) scale(0.100000,-0.100000)"
fill="#000000" stroke="none">
<path d="M2134 5046 c-54 -17 -124 -66 -158 -110 -40 -53 -85 -155 -92 -208
l-6 -47 -497 -3 -496 -3 -53 -30 c-99 -54 -153 -148 -160 -277 l-5 -78 1893 0
1893 0 -5 78 c-7 129 -61 223 -160 277 l-53 30 -495 3 -496 3 -11 58 c-23 124
-113 249 -210 294 -47 21 -59 22 -448 24 -306 2 -410 -1 -441 -11z"/>
<path d="M897 4083 c2 -21 62 -816 133 -1766 72 -950 135 -1749 141 -1775 23
-94 86 -209 159 -285 75 -79 145 -126 248 -166 l67 -26 880 -3 c779 -2 888 -1
953 13 221 49 411 236 467 460 9 37 65 724 144 1785 72 949 132 1742 133 1763
l4 37 -1666 0 -1666 0 3 -37z m844 -480 c28 -30 40 -54 47 -94 6 -30 34 -723
62 -1540 48 -1373 51 -1488 36 -1517 -23 -44 -54 -62 -107 -62 -54 0 -98 30
-118 77 -9 24 -146 2673 -153 2978 -2 71 1 98 16 129 27 55 69 78 130 73 42
-4 55 -10 87 -44z m889 25 c18 -13 42 -39 52 -58 19 -34 19 -66 13 -1525 -3
-820 -8 -1512 -12 -1540 -4 -38 -13 -57 -38 -82 -29 -29 -40 -33 -85 -33 -45
0 -56 4 -85 33 -25 25 -34 44 -38 82 -4 28 -9 720 -12 1540 -6 1428 -6 1491
12 1525 39 75 128 102 193 58z m910 5 c50 -29 72 -83 71 -172 -1 -123 -140
-2932 -147 -2970 -3 -20 -20 -49 -39 -68 -29 -29 -40 -33 -84 -33 -42 0 -56 5
-82 28 -27 24 -33 37 -36 83 -4 48 89 2778 101 2957 3 54 11 84 30 116 41 70
124 96 186 59z"/>
</g>
</svg>
