<?xml version="1.0" standalone="no"?>
<!DOCTYPE svg PUBLIC "-//W3C//DTD SVG 20010904//EN"
 "http://www.w3.org/TR/2001/REC-SVG-20010904/DTD/svg10.dtd">
<svg version="1.0" xmlns="http://www.w3.org/2000/svg"
 width="512.000000pt" height="512.000000pt" viewBox="0 0 512.000000 512.000000"
 preserveAspectRatio="xMidYMid meet">

<g transform="translate(0.000000,512.000000) scale(0.100000,-0.100000)"
fill="#000000" stroke="none">
<path d="M1530 4778 c-31 -16 -52 -36 -66 -63 -37 -68 -1136 -2906 -1141
-2944 -7 -55 31 -121 87 -148 24 -13 56 -23 70 -23 39 1 106 35 126 65 15 23
66 151 298 748 l58 147 446 0 447 0 -286 -287 c-168 -169 -298 -308 -314 -336
-45 -78 -65 -159 -65 -257 0 -108 24 -193 79 -276 52 -79 889 -912 954 -949
154 -88 360 -88 514 0 66 38 1861 1828 1914 1909 107 163 107 389 0 552 -52
79 -889 912 -954 949 -154 88 -360 88 -514 0 -30 -17 -199 -178 -440 -418
-216 -215 -394 -389 -397 -386 -2 2 -138 371 -300 819 -163 448 -304 828 -314
845 -19 33 -92 75 -132 75 -14 0 -46 -10 -70 -22z m303 -1243 c124 -341 229
-628 232 -637 7 -17 -20 -18 -484 -18 -270 0 -491 2 -491 5 0 3 439 1136 498
1284 4 11 6 11 12 0 4 -8 109 -293 233 -634z m1695 61 c15 -8 217 -205 449
-438 377 -378 423 -428 433 -467 12 -47 7 -99 -15 -141 -8 -14 -316 -326 -684
-695 l-671 -670 -527 528 -528 527 676 675 c524 525 684 679 715 691 44 16
110 12 152 -10z m-1238 -2111 l525 -525 -110 -111 c-61 -61 -121 -116 -135
-124 -42 -22 -94 -27 -141 -15 -39 10 -89 56 -467 433 -233 232 -429 433 -437
447 -22 42 -27 94 -15 141 10 36 33 66 128 162 64 64 118 117 122 117 3 0 241
-236 530 -525z"/>
</g>
</svg>
