<?xml version="1.0" standalone="no"?>
<!DOCTYPE svg PUBLIC "-//W3C//DTD SVG 20010904//EN"
 "http://www.w3.org/TR/2001/REC-SVG-20010904/DTD/svg10.dtd">
<svg version="1.0" xmlns="http://www.w3.org/2000/svg"
 width="980.000000pt" height="980.000000pt" viewBox="0 0 980.000000 980.000000"
 preserveAspectRatio="xMidYMid meet">

<g transform="translate(0.000000,980.000000) scale(0.100000,-0.100000)"
fill="#000000" stroke="none">
<path d="M4352 9785 c-189 -41 -373 -199 -438 -376 -9 -24 -62 -268 -118 -542
l-101 -499 -110 -43 c-60 -23 -147 -59 -192 -79 -45 -20 -86 -36 -92 -36 -6 0
-194 122 -418 272 -408 272 -480 314 -583 339 -78 19 -231 17 -305 -5 -138
-41 -155 -55 -556 -455 -357 -357 -379 -380 -412 -451 -38 -81 -67 -200 -67
-277 0 -70 26 -178 58 -247 16 -34 151 -244 300 -469 150 -224 272 -411 272
-416 0 -5 -20 -53 -44 -107 -23 -55 -59 -142 -80 -194 l-36 -95 -506 -101
c-450 -90 -513 -105 -577 -137 -170 -84 -294 -243 -332 -422 -21 -102 -21
-988 0 -1090 40 -189 187 -364 366 -436 30 -12 278 -67 553 -123 l498 -101 38
-100 c21 -55 56 -141 79 -191 22 -51 41 -97 41 -103 0 -6 -121 -193 -269 -415
-284 -425 -308 -466 -337 -561 -29 -95 -24 -249 10 -349 46 -136 87 -185 462
-557 376 -372 400 -391 549 -435 124 -36 309 -18 428 43 28 13 231 146 453
294 222 148 411 269 419 269 9 0 35 -10 58 -22 23 -11 107 -47 187 -79 l145
-58 96 -480 c53 -263 104 -503 113 -532 46 -140 176 -289 307 -352 132 -63
172 -67 689 -67 519 0 559 4 689 68 135 66 256 203 303 342 12 36 65 280 117
543 l96 477 160 66 c88 36 178 73 200 82 l40 15 390 -260 c443 -295 460 -306
539 -333 158 -54 328 -45 474 26 72 35 99 59 431 388 237 236 368 373 397 417
113 173 132 397 50 584 -13 29 -148 238 -300 463 -152 226 -276 416 -276 423
0 6 19 52 41 103 23 50 59 136 80 191 l38 100 503 101 c598 119 610 123 744
258 93 93 145 186 169 301 21 102 21 988 0 1090 -24 115 -76 208 -169 301
-134 135 -146 139 -744 258 l-503 101 -38 100 c-21 55 -57 141 -80 191 -22 51
-41 97 -41 103 0 6 121 193 269 415 148 222 280 425 294 452 45 90 61 161 61
274 0 90 -5 117 -30 190 -17 47 -47 110 -67 140 -20 30 -197 215 -394 411
-333 332 -363 359 -433 393 -81 39 -186 66 -263 66 -69 0 -192 -27 -262 -59
-33 -15 -243 -150 -467 -299 -224 -150 -412 -272 -417 -272 -5 0 -51 19 -102
42 -51 22 -139 58 -194 79 l-100 38 -101 503 c-119 598 -123 610 -258 744 -93
93 -186 145 -301 169 -98 20 -998 20 -1093 0z m913 -2564 c755 -134 1379 -597
1705 -1266 163 -333 228 -600 237 -966 8 -306 -23 -525 -113 -800 -161 -489
-493 -920 -934 -1212 -560 -370 -1271 -475 -1930 -285 -209 60 -440 168 -629
293 -546 362 -913 935 -1016 1586 -23 143 -31 440 -16 581 40 375 169 740 369
1043 380 579 966 944 1667 1040 151 21 506 13 660 -14z"/>
<path d="M4676 6105 c-500 -94 -887 -485 -981 -990 -25 -134 -16 -385 18 -516
124 -472 502 -822 978 -905 140 -24 380 -15 511 19 437 115 771 449 885 886
31 119 42 353 24 481 -72 487 -427 880 -910 1007 -81 21 -123 26 -271 29 -126
2 -197 -1 -254 -11z"/>
</g>
</svg>
